<svg xmlns:xlink="http://www.w3.org/1999/xlink" viewBox="0 0 185 39" xmlns="http://www.w3.org/2000/svg" class="logo_logoStacked__S6bta" width="185"  height="39" ><title>Logo Hogeschool van Amsterdam – link naar startpagina</title><path d="M141.495 15.99h.602c.534 0 .708-.223.708-1.194V5.04c0-.971-.174-1.204-.708-1.204h-.602V3.32h3.864v11.476c0 .971.174 1.194.708 1.194h.602v.515h-5.174v-.515Zm-93.145 0h.486c.845 0 .864-.476.864-2.738V7.164c0-2.262-.02-2.738-.883-2.738h-.466v-.514h5.456v.514h-.456c-.864 0-.884.476-.884 2.738v2.534h4.456V7.164c0-2.262-.019-2.738-.883-2.738h-.456v-.514h5.456v.514h-.466c-.864 0-.883.476-.883 2.738v6.088c0 2.262.019 2.738.864 2.738h.475v.514h-5.456v-.514h.456c.864 0 .884-.476.884-2.738V10.31h-4.457v2.942c0 2.262.02 2.738.884 2.738h.456v.514h-5.446v-.514Zm16.591-3.931c0-3.524.777-4.107 1.718-4.107.942 0 1.719.583 1.719 4.107 0 3.078-.456 4.136-1.719 4.136-1.262 0-1.718-1.059-1.718-4.136Zm-2.66 0c0 2.777 1.563 4.728 4.369 4.728 2.815 0 4.378-1.961 4.378-4.728 0-2.748-1.553-4.719-4.378-4.719-2.806 0-4.37 1.971-4.37 4.719Zm13.107-1.592c0-.99.049-2.505 1.418-2.505 1.3 0 1.3 1.728 1.3 2.621 0 .874-.145 2.195-1.31 2.195-1.36-.01-1.408-1.292-1.408-2.311Zm.68 4.175c-.903 0-1.291-.127-1.291-.554 0-.378.242-.708.834-.708 2.301 0 5.049 0 5.049-3.088 0-.903-.408-1.553-1.243-2.262.301-.107.515-.175.787-.175.437 0 .136.942 1.204.942.602 0 .903-.476.903-1.01 0-.582-.32-1.106-.962-1.106-.854-.01-1.563.883-2.514.883-.408 0-1.175-.214-2.126-.214-1.942 0-3.874.884-3.874 3.088 0 1.3.815 2.3 2.01 2.65v.04-.02c-.855.262-1.389.99-1.389 1.893 0 .66.32 1.252 1.068 1.514v.04c-.903.096-2.068.727-2.068 1.805 0 1.932 2.505 2.282 3.98 2.282 2.127 0 4.933-.806 4.933-3.379 0-2.233-1.874-2.612-3.195-2.612h-2.106v-.01Zm.903 2.116c1.048 0 2.767.04 2.767 1.466 0 1.36-1.719 1.806-2.855 1.806-1.097 0-2.815-.252-2.815-1.65 0-1.593 1.718-1.622 2.903-1.622Zm8.748-5.175c0-1.748.068-3.631 1.534-3.631 1.31 0 1.31 1.709 1.31 3.631H85.72Zm5.602.515c0-2.748-1.04-4.758-4-4.758-2.816 0-4.38 1.971-4.38 4.719 0 2.767 1.564 4.728 4.38 4.728 2.223 0 3.602-1.136 3.835-3.32l-.787-.01c-.039 1.408-.942 2.728-2.476 2.728-2.019 0-2.174-1.874-2.174-3.65v-.447h5.602v.01Zm1.474 1.514h.573c.359 1.515 1.184 2.583 2.854 2.583.903 0 1.767-.534 1.767-1.447 0-1.136-.883-1.388-2.582-1.777-1.311-.3-2.602-.747-2.602-2.573 0-2.116 1.543-3.048 3.495-3.038.796 0 1.359.281 1.951.281.476 0 .748-.146.952-.291h.106v2.845h-.563c-.174-1.166-1.135-2.233-2.378-2.233-.864 0-1.748.32-1.748 1.407 0 .903.466 1.03 2.515 1.515 1.573.35 2.776.854 2.776 2.912 0 2.136-1.747 3.01-3.611 3-.825 0-1.738-.29-2.495-.29-.35 0-.71.164-.884.29h-.107v-3.184h-.02Zm16.363-.058c-.253 2.184-1.466 3.243-3.661 3.243-2.873 0-4.184-2.146-4.184-4.816 0-3.35 2.388-4.631 4.515-4.631 2.446 0 3.174 1.32 3.174 1.951 0 .855-.446 1.437-1.369 1.437-.728 0-1.184-.514-1.184-1.223 0-.515.252-.602.252-.825 0-.389-.611-.728-1.009-.728-1.525 0-1.612 2.155-1.612 4.233 0 1.407-.019 4.01 1.942 4.01 1.611 0 2.233-1.205 2.349-2.651h.787Zm.971 2.436h.602c.534 0 .709-.223.709-1.204V5.03c0-.97-.175-1.194-.709-1.194h-.602V3.32h3.864v5.505h.039c.514-.864 1.446-1.485 2.757-1.485 1.738 0 2.583 1.039 2.583 2.514v4.932c0 .971.174 1.204.708 1.204h.389v.515h-4.748v-.515h.388c.525 0 .709-.223.709-1.204v-4.475c0-.864 0-1.884-1.136-1.884-1.699 0-1.699 1.952-1.699 3.049v3.3c0 .972.175 1.205.709 1.205h.388v.524h-4.961v-.515h.01Zm14.184-3.931c0-3.524.776-4.107 1.718-4.107s1.718.583 1.718 4.107c0 3.078-.456 4.136-1.718 4.136s-1.718-1.059-1.718-4.136Zm-2.661 0c0 2.777 1.554 4.728 4.369 4.728 2.816 0 4.369-1.961 4.369-4.728 0-2.748-1.553-4.719-4.369-4.719-2.806 0-4.369 1.971-4.369 4.719Zm12.825 0c0-3.524.776-4.107 1.718-4.107s1.719.583 1.719 4.107c0 3.078-.466 4.136-1.719 4.136-1.262 0-1.718-1.059-1.718-4.136Zm-2.661 0c0 2.777 1.554 4.728 4.369 4.728 2.816 0 4.369-1.961 4.369-4.728 0-2.748-1.553-4.719-4.369-4.719-2.815 0-4.369 1.971-4.369 4.719ZM57.564 27.04c-.65 0-.854.553-1.136 1.223l-2.155 5.233a22.59 22.59 0 0 0-.728 2.02H52.36c-.155-.457-.32-.952-.495-1.408l-2.35-5.894c-.3-.767-.359-1.174-.863-1.174h-.301v-.515h4.844v.515h-.602c-.3 0-.602.077-.602.388 0 .087.059.3.165.602l1.729 4.524h.038l1.758-4.437c.087-.252.136-.447.136-.602 0-.3-.301-.476-.622-.476h-.427v-.514h2.796v.515Zm6.096 5.95c0 1.534-.923 1.835-1.38 1.835-.902 0-1.223-.826-1.223-1.622 0-1.572.631-2.534 2.068-2.534.156 0 .301.02.524.068v2.253h.01Zm3.562-.039c0 .816 0 1.748-.572 1.748-.282 0-.447-.185-.447-.66v-5.292c0-2.068-1.932-2.505-3.631-2.505-1.253 0-3.563.37-3.563 2.039 0 .806.524 1.32 1.33 1.32.69 0 1.33-.446 1.33-1.194 0-.505-.388-.825-.388-1.02 0-.465.805-.533 1.194-.533.932 0 1.174.66 1.174 1.447v1.873c-.262-.02-.514-.02-.776-.02-1.932 0-4.476.777-4.476 3.06 0 1.63 1.252 2.465 2.777 2.465.97 0 2.068-.3 2.582-1.175.301.816 1.224 1.175 1.932 1.175 2.175 0 2.194-1.553 2.194-2.728h-.66Zm1.311 1.932h.602c.534 0 .708-.233.708-1.194v-5.437c0-.98-.174-1.204-.708-1.204h-.602v-.514h1.854c.66 0 1.291-.127 1.903-.292v1.573h.03c.708-1 1.553-1.573 2.863-1.573 1.738 0 2.592 1.039 2.592 2.515v4.932c0 .97.175 1.204.71 1.204h.388v.514h-4.748v-.514h.388c.525 0 .709-.233.709-1.204v-4.476c0-.864 0-1.883-1.136-1.883-1.699 0-1.699 1.951-1.699 3.058v3.3c0 .972.175 1.195.709 1.195h.388v.515h-4.961v-.515h.01Zm22.563-4.173h-4.058l2.107-5.059 1.951 5.058Zm-.029 4.689h5.67v-.515h-.369c-.69 0-.97-.709-1.184-1.272l-3.272-8.466a22.224 22.224 0 0 1-.816-2.505h-1.573a17.73 17.73 0 0 1-.757 2.098l-3.456 8.29c-.583 1.399-.923 1.855-1.826 1.855v.515h3.826v-.515h-.476c-.602-.02-.961-.262-.961-.747 0-.437.213-1.078.466-1.68l.475-1.136h4.535l.456 1.194c.32.816.602 1.515.602 1.845 0 .514-.534.514-1.33.524v.515h-.01Zm5.835-.516h.602c.534 0 .709-.233.709-1.194v-5.437c0-.98-.175-1.204-.709-1.204h-.602v-.514h1.864c.66 0 1.292-.127 1.903-.292v1.573h.039c.709-1 1.554-1.573 2.864-1.573 1.204 0 2.097.437 2.428 1.573.757-1.097 1.485-1.573 2.951-1.573 1.738 0 2.592 1.039 2.592 2.515v4.932c0 .97.175 1.204.709 1.204h.388v.514h-4.747v-.514h.388c.534 0 .709-.233.709-1.204v-4.476c0-.864 0-1.883-1.136-1.883-1.699 0-1.699 1.951-1.699 3.048v3.301c0 .971.175 1.204.709 1.204h.388v.515h-4.748v-.515h.389c.534 0 .708-.233.708-1.204v-4.476c0-.864 0-1.883-1.136-1.883-1.699 0-1.699 1.951-1.699 3.058v3.301c0 .971.175 1.194.709 1.194h.389v.515h-4.962v-.505Zm16.778-2.379h.573c.359 1.515 1.184 2.583 2.854 2.583.903 0 1.767-.534 1.767-1.447 0-1.136-.883-1.388-2.582-1.776-1.311-.301-2.602-.748-2.602-2.573 0-2.117 1.544-3.049 3.495-3.04.796 0 1.359.282 1.952.282.475 0 .737-.145.961-.29h.107v2.844h-.573c-.175-1.165-1.136-2.233-2.379-2.233-.864 0-1.748.32-1.748 1.408 0 .902.457 1.029 2.515 1.514 1.573.35 2.777.855 2.777 2.913 0 2.136-1.748 3.01-3.612 3-.825 0-1.738-.282-2.495-.282-.359 0-.709.165-.884.292h-.106v-3.195h-.02Zm13.854-5.464h-1.854v5.718c0 1.068 0 1.844.815 1.844.67 0 .777-.66.797-1.271v-.573h.67v.388c0 1.767-.7 2.544-2.311 2.544-1.825 0-2.524-1.117-2.524-2.32v-6.33h-1.243v-.515c1.757-.107 2.874-1.806 3.262-3.398h.534v3.398h1.854v.514Zm4.321 3.445c0-1.747.068-3.631 1.534-3.631 1.311 0 1.311 1.709 1.311 3.631h-2.845Zm5.612.505c0-2.757-1.049-4.757-4.01-4.757-2.816 0-4.379 1.97-4.379 4.718 0 2.767 1.563 4.728 4.379 4.728 2.223 0 3.602-1.136 3.835-3.32l-.787-.01c-.038 1.408-.941 2.728-2.475 2.728-2.02 0-2.175-1.873-2.175-3.65v-.447h5.612v.01Zm4.953 2.699c0 .97.175 1.194.709 1.194h.815v.515h-5.388v-.515h.602c.534 0 .708-.223.708-1.194v-5.437c0-.98-.174-1.204-.708-1.204h-.602v-.514h1.864c.65 0 1.291-.127 1.893-.292v2.02h.068c.388-.903 1.184-1.884 2.369-1.884.835 0 1.767.36 1.767 1.495 0 .835-.544 1.272-1.486 1.272-.427 0-1.174-.213-1.174-1.136 0-.33 0-.427-.214-.427-.495 0-1.243 1.155-1.243 3.049v3.058h.02Zm7.794-2.979c0-.855 0-3.592 1.34-3.592 1.68 0 1.816 2.456 1.816 3.66 0 1.175-.02 4.039-1.806 4.039-1.35 0-1.35-3.233-1.35-4.107Zm3.311 4.69h3.718v-.515h-.563c-.456 0-.708-.156-.708-1.224V22.215h-3.806v.514h.543c.67 0 .709.32.709 1.185v3.776h-.039c-.543-.99-1.378-1.446-2.505-1.446-2.582 0-3.436 2.476-3.436 4.747 0 2.156.922 4.7 3.398 4.7 1.233 0 2.242-.438 2.65-1.573h.029v1.281h.01Zm9.993-2.41c0 1.534-.913 1.835-1.379 1.835-.903 0-1.223-.826-1.223-1.622 0-1.572.64-2.534 2.068-2.534.155 0 .301.02.524.068v2.253h.01Zm3.563-.039c0 .816 0 1.748-.563 1.748-.282 0-.447-.185-.447-.66v-5.292c0-2.068-1.932-2.505-3.631-2.505-1.253 0-3.563.37-3.563 2.039 0 .806.534 1.32 1.33 1.32.689 0 1.33-.446 1.33-1.194 0-.505-.388-.825-.388-1.02 0-.465.815-.533 1.194-.533.932 0 1.175.66 1.175 1.447v1.873c-.263-.02-.515-.02-.777-.02-1.932 0-4.476.777-4.476 3.06 0 1.63 1.262 2.465 2.777 2.465.971 0 2.068-.3 2.582-1.175.301.816 1.224 1.175 1.932 1.175 2.175 0 2.195-1.553 2.195-2.728h-.67Zm1.31 1.932h.602c.534 0 .709-.233.709-1.194v-5.437c0-.98-.175-1.204-.709-1.204h-.602v-.514h1.855c.66 0 1.3-.127 1.902-.292v1.573h.039c.709-1 1.554-1.573 2.864-1.573 1.204 0 2.097.437 2.428 1.573.767-1.097 1.485-1.573 2.951-1.573 1.738 0 2.592 1.039 2.592 2.515v4.932c0 .97.175 1.204.709 1.204h.388v.514h-4.747v-.514h.388c.534 0 .709-.233.709-1.204v-4.476c0-.864 0-1.883-1.126-1.883-1.699 0-1.699 1.951-1.699 3.048v3.301c0 .971.174 1.204.708 1.204h.389v.515h-4.748v-.515h.388c.534 0 .709-.233.709-1.204v-4.476c0-.864 0-1.883-1.136-1.883-1.699 0-1.699 1.951-1.699 3.058v3.301c0 .971.175 1.194.709 1.194h.388v.515h-4.961v-.505ZM20.904 9.31c5.467 0 10.583 1.467 14.972 4.04l4.699-8.03C34.798 1.932 28.079 0 20.905 0 13.73 0 7.02 1.932 1.244 5.32l4.698 8.03a29.516 29.516 0 0 1 14.961-4.04Z" fill="#FFFFFF"></path><path d="M25.243 13.718c-1.913-.02-7.69-.126-15.126 3.301-.952.437-1.622.806-1.777.573-.32-.514 2.039-2.514 4.582-3.99.913-.544 1.447-1.02 1.233-1.427-.31-.593-2.126-.71-7.194 1.883A28.421 28.421 0 0 0 0 19.515l.825.776c.816-.864 1.69-1.66 2.593-2.446.601-.515 3.368-2.593 3.611-1.962.097.253-.087.622-1.068 1.962-.854 1.184-1.417 2.29-1.01 2.63.408.34.894.146 2.05-.485.853-.475 3.572-1.912 7.863-3.204 4.291-1.281 5.33-.796 5.437-.475.126.417-1.845 1.116-3.01 1.699-.97.505-4.417 2.524-6.281 4.02 0 0 1.806 3.106 1.815 3.106 1.923-1.136 9.263-2.99 10.049-1.65.854 1.475-6.942 6.96-6.942 6.96L20.903 39s11.32-13 9.515-15.854c-1.816-2.835-8.631-2.311-11.32-2.059-.739.068-1.603.224-1.787-.136-.204-.407.029-2.029 9.116-4.174 2.02-.476 2.806-.719 2.7-1.612-.107-.767-1.981-1.427-3.884-1.447Z" fill="#FFFFFF"></path></svg>