<svg xmlns:xlink="http://www.w3.org/1999/xlink" xmlns="http://www.w3.org/2000/svg" width="160.234" height="43.145" viewBox="0 0 160.234 43.145"><path d="M30.495,40.089H0V0H160.234V40.089H129.189V38.867h29.822V1.222H1.222V38.867H31.106v1.222Z" fill="#fff"/><g transform="translate(36.606 36.056)"><path d="M59.9,59.2h.978v6.783H59.9Z" transform="translate(-59.9 -59.078)" fill="#fff"/><path d="M64.65,59.2h.978l1.528,3.667a8.632,8.632,0,0,1,.367.917h0a8.632,8.632,0,0,1,.367-.917L69.417,59.2h.978l.55,6.783h-.917l-.306-4.278v-.978h0a7.754,7.754,0,0,1-.367.978l-1.344,3.056h-.917L65.75,61.706a7.358,7.358,0,0,1-.367-1.039h0v1.039l-.306,4.278H64.1Z" transform="translate(-61.533 -59.078)" fill="#fff"/><path d="M78.328,59.2h.978l1.528,3.667a8.631,8.631,0,0,1,.367.917h0a8.634,8.634,0,0,1,.367-.917L83.094,59.2h.978l.611,6.783h-.917l-.306-4.278v-.978h0a7.754,7.754,0,0,1-.367.978L81.75,64.761h-.856L79.55,61.706a7.358,7.358,0,0,1-.367-1.039h0v1.039l-.306,4.278H77.9Z" transform="translate(-66.9 -59.078)" fill="#fff"/><path d="M91.7,59.2h3.911v.856H92.617v2.078h2.444v.856H92.617v2.2h3.178v.856H91.7Z" transform="translate(-72.267 -59.078)" fill="#fff"/><path d="M100.7,59.2h2.078a2.954,2.954,0,0,1,1.283.183,1.859,1.859,0,0,1,1.161,1.833A1.881,1.881,0,0,1,104,63.05h0a1.363,1.363,0,0,1,.183.306l1.467,2.628h-1.1l-1.406-2.689h-1.467v2.689H100.7Zm2.322,3.239a1.155,1.155,0,0,0,1.222-1.222,1.071,1.071,0,0,0-.55-1.039,1.578,1.578,0,0,0-.917-.183h-1.1v2.444Z" transform="translate(-75.767 -59.078)" fill="#fff"/><path d="M110.45,64.378a2.7,2.7,0,0,0,1.711.733,1.053,1.053,0,0,0,1.161-.978c0-1.467-3.3-1.161-3.3-3.239a2.027,2.027,0,0,1,2.2-1.894,2.619,2.619,0,0,1,1.894.672l-.428.794a2.283,2.283,0,0,0-1.467-.611c-.733,0-1.222.428-1.222.978,0,1.406,3.3,1.039,3.3,3.239a1.936,1.936,0,0,1-2.139,1.894,3.118,3.118,0,0,1-2.261-.917Z" transform="translate(-79.344 -59)" fill="#fff"/><path d="M119.3,59.2h.978v6.783H119.3Z" transform="translate(-83 -59.078)" fill="#fff"/><path d="M122.5,59.2h1.039l1.711,4.767c.122.367.244.917.244.917h0s.122-.55.244-.917L127.45,59.2h.978l-2.506,6.783h-.978Z" transform="translate(-84.244 -59.078)" fill="#fff"/><path d="M133.8,59.2h3.911v.856h-2.994v2.078h2.444v.856h-2.444v2.2h3.178v.856H133.8Z" transform="translate(-88.639 -59.078)" fill="#fff"/><path d="M146.55,64.378a2.7,2.7,0,0,0,1.711.733,1.053,1.053,0,0,0,1.161-.978c0-1.467-3.3-1.161-3.3-3.239a2.027,2.027,0,0,1,2.2-1.894,2.62,2.62,0,0,1,1.894.672l-.428.794a2.283,2.283,0,0,0-1.467-.611c-.733,0-1.222.428-1.222.978,0,1.406,3.3,1.039,3.3,3.239a1.936,1.936,0,0,1-2.139,1.894A3.118,3.118,0,0,1,146,65.05Z" transform="translate(-93.383 -59)" fill="#fff"/><path d="M156.322,59.956H154V59.1h5.622v.856H157.3v5.928h-.978V59.956Z" transform="translate(-96.494 -59.039)" fill="#fff"/><path d="M164.6,59.2h.978v4.4a1.712,1.712,0,0,0,3.422,0V59.261h.978v4.4a2.458,2.458,0,0,1-2.689,2.506,2.491,2.491,0,0,1-2.689-2.506V59.2Z" transform="translate(-100.617 -59.078)" fill="#fff"/><path d="M176.2,59.2h2.261a3.131,3.131,0,0,1,3.422,3.361,3.178,3.178,0,0,1-3.422,3.422H176.2Zm2.2,5.928a2.33,2.33,0,0,0,2.506-2.567,2.359,2.359,0,0,0-2.506-2.567h-1.222v5.133Z" transform="translate(-105.128 -59.078)" fill="#fff"/><path d="M187.9,59.2h.978v6.783H187.9Z" transform="translate(-109.678 -59.078)" fill="#fff"/><path d="M195.183,59a3.514,3.514,0,1,1-3.483,3.483A3.443,3.443,0,0,1,195.183,59Zm0,6.111a2.562,2.562,0,0,0,2.506-2.689,2.506,2.506,0,1,0-5.011,0A2.562,2.562,0,0,0,195.183,65.111Z" transform="translate(-111.155 -59)" fill="#fff"/></g><path d="M28.061,36.561l-5.317-9.9H17v9.9H14.8V13.4h6.967a8.547,8.547,0,0,1,4.217.733,6.019,6.019,0,0,1,3.3,5.744,6.481,6.481,0,0,1-4.217,6.417,3.506,3.506,0,0,0,.244.428l5.317,9.9H28.061ZM22.622,24.583c2.628,0,4.339-1.833,4.339-4.706a4.075,4.075,0,0,0-2.383-3.911,6.879,6.879,0,0,0-2.933-.428H16.939v9.044Z" transform="translate(-5.756 -5.211)" fill="#fff"/><path d="M55.272,36.694A11.885,11.885,0,0,1,43.6,24.594a11.673,11.673,0,1,1,23.344,0,11.846,11.846,0,0,1-11.672,12.1m0-21.756a9.4,9.4,0,0,0-9.411,9.656c0,5.622,4.156,9.961,9.411,9.961,5.317,0,9.411-4.4,9.411-9.961a9.394,9.394,0,0,0-9.411-9.656" transform="translate(-16.956 -4.978)" fill="#fff"/><path d="M97.372,36.694A11.885,11.885,0,0,1,85.7,24.594a11.673,11.673,0,1,1,23.344,0,11.925,11.925,0,0,1-11.672,12.1m0-21.756a9.4,9.4,0,0,0-9.411,9.656c0,5.622,4.156,9.961,9.411,9.961,5.317,0,9.411-4.4,9.411-9.961a9.47,9.47,0,0,0-9.411-9.656" transform="translate(-33.328 -4.978)" fill="#fff"/><path d="M130.2,36.561V13.4h11.55v2.139H132.4v8.494h7.089v2.078H132.4v10.45Z" transform="translate(-50.633 -5.211)" fill="#fff"/><path d="M158.544,36.561V15.539H151.7V13.4h15.95v2.139h-6.906V36.561Z" transform="translate(-58.994 -5.211)" fill="#fff"/><path d="M190.672,36.694A11.885,11.885,0,0,1,179,24.594a11.673,11.673,0,1,1,23.344,0,11.925,11.925,0,0,1-11.672,12.1m0-21.756a9.4,9.4,0,0,0-9.411,9.656c0,5.622,4.156,9.961,9.411,9.961,5.317,0,9.411-4.4,9.411-9.961a9.47,9.47,0,0,0-9.411-9.656" transform="translate(-69.611 -4.978)" fill="#fff"/><path d="M223.5,36.561V13.4h7.761c4.278,0,7.211,2.75,7.211,6.906,0,4.094-2.933,6.967-7.211,6.967H225.7V36.5h-2.2Zm7.7-11.367c3.117,0,5.011-1.833,5.011-4.889,0-2.994-1.894-4.828-5.011-4.828h-5.5v9.717Z" transform="translate(-86.916 -5.211)" fill="#fff"/></svg>